Coordinates
version=1
nRows=6
nColumns=107
inDegrees=yes

Units are S.I. units (second, meters, Newtons, ...)
If the header above contains a line with 'inDegrees', this indicates whether rotational values are in degrees (yes) or radians (no).

endheader
time	sternoclavicular_r2	sternoclavicular_r3	unrotscap_r3	unrotscap_r2	acromioclavicular_r2	acromioclavicular_r3	acromioclavicular_r1	unrothum_r1	unrothum_r3	unrothum_r2	elv_angle	shoulder_elv	shoulder1_r2	shoulder_rot	elbow_flexion	pro_sup	deviation	flexion	proximal_distal_r1	proximal_distal_r3	cmc_flexion	cmc_abduction	mp_flexion	ip_flexion	mcp2_flexion	mcp2_abduction	pm2_flexion	md2_flexion	mcp3_flexion	mcp3_abduction	pm3_flexion	md3_flexion	mcp4_flexion	mcp4_abduction	pm4_flexion	md4_flexion	mcp5_flexion	mcp5_abduction	pm5_flexion	md5_flexion	bicpt_tx	bicpt_ty	bicpt_tz	bicpt2_tx	bicpt2_ty	bicpt2_tz	ptpt_tx	ptpt_ty	ptpt_tz	FCUpt_tx	FCUpt_ty	FCUpt_tz	EDCpt_tx	EDCpt_ty	EDCpt_tz	APLpt_tx	APLpt_ty	APLpt_tz	FPLpt_tx	FPLpt_ty	FPLpt_tz	FPLpt2_tx	FPLpt2_ty	FPLpt2_tz	PEC1pt2_tx	PEC1pt2_ty	PEC1pt2_tz	PEC1pt3_tx	PEC1pt3_ty	PEC1pt3_tz	PEC2pt2_tx	PEC2pt2_ty	PEC2pt2_tz	PEC2pt3_tx	PEC2pt3_ty	PEC2pt3_tz	PEC3pt2_tx	PEC3pt2_ty	PEC3pt2_tz	PEC3pt3_tx	PEC3pt3_ty	PEC3pt3_tz	DELT2pt2a_tx	DELT2pt2a_ty	DELT2pt2a_tz	DELT2pt2_tx	DELT2pt2_ty	DELT2pt2_tz	LAT1pt2_tx	LAT1pt2_ty	LAT1pt2_tz	LAT1pt3_tx	LAT1pt3_ty	LAT1pt3_tz	LAT2pt2_tx	LAT2pt2_ty	LAT2pt2_tz	LAT2pt3_tx	LAT2pt3_ty	LAT2pt3_tz	LAT3pt2_tx	LAT3pt2_ty	LAT3pt2_tz	LAT3pt3_tx	LAT3pt3_ty	LAT3pt3_tz
      0.00000000	     -0.33054127	      0.14000168	     -0.14000168	      0.33054127	     -0.06692788	      0.54088761	      0.24312526	     -0.24312526	     -0.54088761	      0.06692788	     98.65609916	     78.25858310	     -1.72187376	    -16.16661104	     27.16652399	     38.46860682	      0.15341582	     -0.08367505	      0.18894223	     -0.04183753	     29.83973226	    -21.79539169	      8.26108036	     -3.34437825	     -4.18710892	     -0.57799033	     12.80463360	    -33.91608042	    -12.31534015	     -2.83442303	      7.27661610	     12.25075891	    -12.50917984	      1.31698872	    -13.44059698	     24.17436667	    -27.62681759	      0.63575260	      5.86505445	      4.89170830	      0.00079858	     -0.03071370	     -0.00480154	      0.01656886	     -0.01757992	     -0.00763186	      0.00470760	     -0.06673794	     -0.00314885	      0.00762642	     -0.18352659	     -0.00037467	     -0.00461622	      0.00131831	      0.00015678	      0.00007975	      0.00003190	      0.00015950	      0.00010208	      0.00030623	      0.00017226	     -0.00000833	     -0.00025132	     -0.00030159	      0.00256514	      0.00899974	      0.00626069	     -0.00839107	      0.02026029	     -0.01921685	      0.00256514	      0.00899974	      0.00626069	      0.00056520	      0.01878208	     -0.00986929	      0.00402631	      0.00500464	      0.01615602	      0.00000000	      0.00819379	      0.00000000	     -0.00734762	     -0.03395556	     -0.00675838	      0.01146591	     -0.00031723	     -0.00208694	     -0.00091302	      0.01530391	     -0.00626069	      0.00252167	      0.02208633	     -0.01826035	     -0.00613026	      0.01326049	     -0.00560854	     -0.01278225	      0.02799921	     -0.03134694	     -0.02399932	      0.01482567	     -0.00752153	     -0.01591259	      0.03234691	     -0.03917280
      0.03333333	     -0.32866753	      0.13920805	     -0.13920805	      0.32866753	     -0.06654849	      0.53782148	      0.24174705	     -0.24174705	     -0.53782148	      0.06654849	     99.20824552	     77.81495854	     -1.73151053	    -18.51491449	     26.75006535	     39.84828226	      0.13208941	     -0.10117066	      0.16498296	     -0.05058533	     30.84352766	    -21.81894458	      8.70660790	     -7.97495207	     -6.50117548	      0.60046442	     16.70353523	    -35.27955968	    -15.02958101	     -2.16690980	      9.77035311	     17.66060498	    -13.98889760	      1.93041934	    -14.44925851	     29.89261558	    -28.83174259	      1.44456749	      5.57268619	      4.96910879	      0.00078481	     -0.03066597	     -0.00479385	      0.01657414	     -0.01746679	     -0.00748624	      0.00460566	     -0.06680386	     -0.00325999	      0.00776496	     -0.18349822	     -0.00038535	     -0.00478178	      0.00137407	      0.00014751	      0.00009494	      0.00003798	      0.00018988	      0.00012153	      0.00036458	      0.00020508	     -0.00000962	     -0.00024258	     -0.00029109	      0.00255060	      0.00894873	      0.00622520	     -0.00834350	      0.02014545	     -0.01910791	      0.00255060	      0.00894873	      0.00622520	      0.00056200	      0.01867561	     -0.00981334	      0.00400983	      0.00497627	      0.01611692	      0.00000000	      0.00810046	      0.00000000	     -0.00730597	     -0.03376307	     -0.00668094	      0.01290453	     -0.00038677	     -0.00280027	     -0.00090784	      0.01521716	     -0.00622520	      0.00250737	      0.02196113	     -0.01815684	     -0.00609551	      0.01318532	     -0.00557674	     -0.01270979	      0.02784049	     -0.03116924	     -0.02386327	      0.01474162	     -0.00747889	     -0.01582239	      0.03216354	     -0.03895074
      0.06666667	     -0.32676189	      0.13840091	     -0.13840091	      0.32676189	     -0.06616264	      0.53470315	      0.24034539	     -0.24034539	     -0.53470315	      0.06616264	     99.32881633	     77.36378184	     -1.73361489	    -20.33185833	     27.42678245	     42.74042183	      0.15786480	     -0.05225576	      0.19384650	     -0.02612788	     30.15187419	    -21.39778177	      6.78956790	      1.32831173	     -3.36873782	      0.44082367	     12.49655928	    -36.37270030	    -11.74330193	     -2.29309239	      7.44765090	     10.31496179	    -12.01482722	      1.87922884	    -11.49368873	     19.97795711	    -26.03276607	      0.87631404	      3.87699482	      4.94984721	      0.00080719	     -0.03074353	     -0.00480634	      0.01657094	     -0.01765062	     -0.00717222	      0.00439197	     -0.06694204	     -0.00349297	      0.00805730	     -0.18343699	     -0.00040305	     -0.00512884	      0.00149288	      0.00012471	      0.00005118	      0.00002047	      0.00010236	      0.00006551	      0.00019653	      0.00011055	     -0.00000875	     -0.00024872	     -0.00029847	      0.00253581	      0.00889684	      0.00618911	     -0.00829512	      0.02002864	     -0.01899712	      0.00253581	      0.00889684	      0.00618911	      0.00055874	      0.01856732	     -0.00975644	      0.00399298	      0.00494742	      0.01607669	      0.00000000	      0.00800611	      0.00000000	     -0.00726361	     -0.03356731	     -0.00660265	      0.01396702	     -0.00044215	     -0.00341426	     -0.00090258	      0.01512893	     -0.00618911	      0.00249284	      0.02183380	     -0.01805156	     -0.00606017	      0.01310887	     -0.00554441	     -0.01263610	      0.02767907	     -0.03098852	     -0.02372491	      0.01465615	     -0.00743553	     -0.01573065	      0.03197706	     -0.03872490
      0.10000000	     -0.32644164	      0.13826527	     -0.13826527	      0.32644164	     -0.06609779	      0.53417910	      0.24010983	     -0.24010983	     -0.53417910	      0.06609779	     99.28946633	     77.28795999	     -1.73292810	    -20.45091644	     27.56698108	     42.09737497	      0.15947244	     -0.05397340	      0.19561072	     -0.02698670	     29.22247453	    -20.97459532	      6.14736358	      0.25579427	     -2.82745994	      0.58471341	     13.40869903	    -36.38282225	    -11.89183606	     -2.11965997	      8.14328989	     11.16768179	    -11.74924966	      1.94355172	    -11.38867947	     20.93164357	    -25.87896752	      0.95154687	      3.97091600	      4.93852394	      0.00081183	     -0.03075960	     -0.00480893	      0.01657332	     -0.01768871	     -0.00724306	      0.00443948	     -0.06691131	     -0.00344117	      0.00799207	     -0.18345081	     -0.00039966	     -0.00505167	      0.00146624	      0.00013018	      0.00005278	      0.00002111	      0.00010557	      0.00006756	      0.00020269	      0.00011401	     -0.00000744	     -0.00025614	     -0.00030737	      0.00253333	      0.00888812	      0.00618304	     -0.00828699	      0.02000901	     -0.01897850	      0.00253333	      0.00888812	      0.00618304	      0.00055819	      0.01854913	     -0.00974688	      0.00399014	      0.00494257	      0.01606989	      0.00000000	      0.00799031	      0.00000000	     -0.00725649	     -0.03353442	     -0.00658953	      0.01403514	     -0.00044582	     -0.00345627	     -0.00090169	      0.01511410	     -0.00618304	      0.00249039	      0.02181240	     -0.01803387	     -0.00605423	      0.01309603	     -0.00553898	     -0.01262371	      0.02765194	     -0.03095815	     -0.02370166	      0.01464179	     -0.00742824	     -0.01571523	      0.03194572	     -0.03868695
      0.13333333	     -0.32723399	      0.13860087	     -0.13860087	      0.32723399	     -0.06625823	      0.53547568	      0.24069263	     -0.24069263	     -0.53547568	      0.06625823	     99.24503698	     77.47555634	     -1.73215266	    -19.65991929	     27.28486254	     42.09270213	      0.16148567	     -0.05605607	      0.19781407	     -0.02802804	     30.44011527	    -21.40995413	      6.95023599	      0.00717713	     -3.57840005	      0.72002905	     13.27490928	    -36.58909719	    -11.73504653	     -2.37449147	      7.52586415	     11.13988176	    -11.86068289	      1.76817295	    -11.53732700	     21.37014544	    -25.82278202	      0.57748284	      3.98556552	      4.89292470	      0.00080250	     -0.03072726	     -0.00480372	      0.01657331	     -0.01761207	     -0.00724356	      0.00443982	     -0.06691109	     -0.00344079	      0.00799160	     -0.18345091	     -0.00039963	     -0.00505111	      0.00146605	      0.00013021	      0.00005472	      0.00002189	      0.00010944	      0.00007004	      0.00021013	      0.00011820	     -0.00000912	     -0.00024623	     -0.00029547	      0.00253948	      0.00890970	      0.00619805	     -0.00830711	      0.02005758	     -0.01902457	      0.00253948	      0.00890970	      0.00619805	      0.00055955	      0.01859415	     -0.00977054	      0.00399716	      0.00495457	      0.01608670	      0.00000000	      0.00802944	      0.00000000	     -0.00727410	     -0.03361581	     -0.00662200	      0.01357924	     -0.00042151	     -0.00318105	     -0.00090388	      0.01515079	     -0.00619805	      0.00249644	      0.02186534	     -0.01807765	     -0.00606892	      0.01312781	     -0.00555242	     -0.01265435	      0.02771906	     -0.03103329	     -0.02375919	      0.01467733	     -0.00744627	     -0.01575338	      0.03202326	     -0.03878085
      0.16666667	     -0.32710692	      0.13854705	     -0.13854705	      0.32710692	     -0.06623250	      0.53526775	      0.24059917	     -0.24059917	     -0.53526775	      0.06623250	     99.21960688	     77.44547144	     -1.73170882	    -19.68569740	     27.35765201	     41.62902240	      0.16262752	     -0.05831283	      0.19906080	     -0.02915641	     29.71011885	    -21.07971812	      6.42251158	     -0.94624603	     -3.03980724	      0.86626653	     14.03447052	    -36.62561467	    -11.81402525	     -2.22865156	      8.05820334	     11.86199159	    -11.66066184	      1.86855244	    -11.48366952	     22.22678039	    -25.76784971	      0.68964860	      4.05270684	      4.90212909	      0.00080491	     -0.03073561	     -0.00480506	      0.01657445	     -0.01763184	     -0.00729429	      0.00447408	     -0.06688894	     -0.00340344	      0.00794465	     -0.18346080	     -0.00039700	     -0.00499547	      0.00144691	      0.00013402	      0.00005681	      0.00002273	      0.00011363	      0.00007272	      0.00021817	      0.00012272	     -0.00000815	     -0.00025241	     -0.00030289	      0.00253849	      0.00890624	      0.00619564	     -0.00830388	      0.02004979	     -0.01901718	      0.00253849	      0.00890624	      0.00619564	      0.00055933	      0.01858693	     -0.00976674	      0.00399604	      0.00495265	      0.01608401	      0.00000000	      0.00802315	      0.00000000	     -0.00727128	     -0.03360276	     -0.00661679	      0.01359430	     -0.00042230	     -0.00318977	     -0.00090353	      0.01514490	     -0.00619564	      0.00249547	      0.02185685	     -0.01807063	     -0.00606657	      0.01312272	     -0.00555026	     -0.01264944	      0.02770829	     -0.03102124	     -0.02374996	      0.01467163	     -0.00744338	     -0.01574726	      0.03201082	     -0.03876579
